HIERARCHY
ROOT Hips
{
  OFFSET 352.181 89.6817 215.948
  CHANNELS 6 Xposition Yposition Zposition Zrotation Xrotation Yrotation
  JOINT RightUpLeg
  {
    OFFSET -9.28908 -1.54242 -0.003762
    CHANNELS 3 Zrotation Xrotation Yrotation
    JOINT RightLeg
    {
      OFFSET 0.175992 -41.9066 0.16442
      CHANNELS 3 Zrotation Xrotation Yrotation
      JOINT RightFoot
      {
        OFFSET -0.850518 -41.676 1.19357
        CHANNELS 3 Zrotation Xrotation Yrotation
        End Site
        {
          OFFSET 0 -7.69 17.5
        }
      }
    }
  }
  JOINT LeftUpLeg
  {
    OFFSET 9.35911 -1.62184 0.0934226
    CHANNELS 3 Zrotation Xrotation Yrotation
    JOINT LeftLeg
    {
      OFFSET 0.11037 -41.8771 -4.76722e-05
      CHANNELS 3 Zrotation Xrotation Yrotation
      JOINT LeftFoot
      {
        OFFSET 0.784832 -42.2153 -2.4698
        CHANNELS 3 Zrotation Xrotation Yrotation
        End Site
        {
          OFFSET 0 -7.69 17.5
        }
      }
    }
  }
  JOINT Spine
  {
    OFFSET -0.0264112 14.3118 0.141242
    CHANNELS 3 Zrotation Xrotation Yrotation
    JOINT Spine1
    {
      OFFSET -0.0608006 9.71827 0.0702426
      CHANNELS 3 Zrotation Xrotation Yrotation
      JOINT Spine2
      {
        OFFSET 0.040197 10.1251 -0.0199022
        CHANNELS 3 Zrotation Xrotation Yrotation
        JOINT Spine3
        {
          OFFSET -0.018884 9.71791 0.0127475
          CHANNELS 3 Zrotation Xrotation Yrotation
          JOINT Neck
          {
            OFFSET -0.169577 10.3664 -0.0885607
            CHANNELS 3 Zrotation Xrotation Yrotation
            JOINT Head
            {
              OFFSET -0.26372 9.48406 0.127016
              CHANNELS 3 Zrotation Xrotation Yrotation
              End Site
              {
                OFFSET 0 15.95 0
              }
            }
          }
          JOINT RightShoulder
          {
            OFFSET -3.21308 6.8767 -0.0450237
            CHANNELS 3 Zrotation Xrotation Yrotation
            JOINT RightArm
            {
              OFFSET -12.7762 -0.0188046 -0.0629949
              CHANNELS 3 Zrotation Xrotation Yrotation
              JOINT RightForeArm
              {
                OFFSET -26.5383 -0.000218244 -0.103623
                CHANNELS 3 Zrotation Xrotation Yrotation
                JOINT RightHand
                {
                  OFFSET -25.8669 -0.047899 -0.0603739
                  CHANNELS 3 Zrotation Xrotation Yrotation
                  JOINT RightHandThumb1
                  {
                    OFFSET -2.48905 0.190105 3.12053
                    CHANNELS 3 Zrotation Xrotation Yrotation
                    JOINT RightHandThumb2
                    {
                      OFFSET -3.68274 0 0
                      CHANNELS 3 Zrotation Xrotation Yrotation
                      JOINT RightHandThumb3
                      {
                        OFFSET -2.55832 0 0
                        CHANNELS 3 Zrotation Xrotation Yrotation
                        End Site
                        {
                          OFFSET -2.194 0 0
                        }
                      }
                    }
                  }
                  JOINT RightInHandIndex
                  {
                    OFFSET -3.22368 0.508421 1.97842
                    CHANNELS 3 Zrotation Xrotation Yrotation
                    JOINT RightHandIndex1
                    {
                      OFFSET -5.21684 -0.091368 0.999158
                      CHANNELS 3 Zrotation Xrotation Yrotation
                      JOINT RightHandIndex2
                      {
                        OFFSET -3.61937 0 0
                        CHANNELS 3 Zrotation Xrotation Yrotation
                        JOINT RightHandIndex3
                        {
                          OFFSET -2.0521 0 0
                          CHANNELS 3 Zrotation Xrotation Yrotation
                          End Site
                          {
                            OFFSET -1.805 0 0
                          }
                        }
                      }
                    }
                  }
                  JOINT RightInHandMiddle
                  {
                    OFFSET -3.38211 0.517263 0.756737
                    CHANNELS 3 Zrotation Xrotation Yrotation
                    JOINT RightHandMiddle1
                    {
                      OFFSET -5.17411 -0.084 0.313895
                      CHANNELS 3 Zrotation Xrotation Yrotation
                      JOINT RightHandMiddle2
                      {
                        OFFSET -3.94947 0 0
                        CHANNELS 3 Zrotation Xrotation Yrotation
                        JOINT RightHandMiddle3
                        {
                          OFFSET -2.47579 0 0
                          CHANNELS 3 Zrotation Xrotation Yrotation
                          End Site
                          {
                            OFFSET -1.975 0 0
                          }
                        }
                      }
                    }
                  }
                  JOINT RightInHandRing
                  {
                    OFFSET -3.36516 0.537895 -0.128947
                    CHANNELS 3 Zrotation Xrotation Yrotation
                    JOINT RightHandRing1
                    {
                      OFFSET -4.63474 -0.022105 -0.478947
                      CHANNELS 3 Zrotation Xrotation Yrotation
                      JOINT RightHandRing2
                      {
                        OFFSET -3.44238 0 0
                        CHANNELS 3 Zrotation Xrotation Yrotation
                        JOINT RightHandRing3
                        {
                          OFFSET -2.3881 0 0
                          CHANNELS 3 Zrotation Xrotation Yrotation
                          End Site
                          {
                            OFFSET -1.857 0 0
                          }
                        }
                      }
                    }
                  }
                  JOINT RightInHandPinky
                  {
                    OFFSET -3.16105 0.469368 -1.20179
                    CHANNELS 3 Zrotation Xrotation Yrotation
                    JOINT RightHandPinky1
                    {
                      OFFSET -4.14105 -0.022105 -1.09053
                      CHANNELS 3 Zrotation Xrotation Yrotation
                      JOINT RightHandPinky2
                      {
                        OFFSET -2.75653 0 0
                        CHANNELS 3 Zrotation Xrotation Yrotation
                        JOINT RightHandPinky3
                        {
                          OFFSET -1.74189 0 0
                          CHANNELS 3 Zrotation Xrotation Yrotation
                          End Site
                          {
                            OFFSET -1.645 0 0
                          }
                        }
                      }
                    }
                  }
                }
              }
            }
          }
          JOINT LeftShoulder
          {
            OFFSET 3.21013 6.92813 0.031381
            CHANNELS 3 Zrotation Xrotation Yrotation
            JOINT LeftArm
            {
              OFFSET 12.8361 0.00272676 -0.00293476
              CHANNELS 3 Zrotation Xrotation Yrotation
              JOINT LeftForeArm
              {
                OFFSET 26.5005 -0.02636 0.00399578
                CHANNELS 3 Zrotation Xrotation Yrotation
                JOINT LeftHand
                {
                  OFFSET 25.9821 -0.0367196 0.00246136
                  CHANNELS 3 Zrotation Xrotation Yrotation
                  JOINT LeftHandThumb1
                  {
                    OFFSET 2.48905 0.190105 3.12053
                    CHANNELS 3 Zrotation Xrotation Yrotation
                    JOINT LeftHandThumb2
                    {
                      OFFSET 3.68274 0 0
                      CHANNELS 3 Zrotation Xrotation Yrotation
                      JOINT LeftHandThumb3
                      {
                        OFFSET 2.55832 0 0
                        CHANNELS 3 Zrotation Xrotation Yrotation
                        End Site
                        {
                          OFFSET 2.194 0 0
                        }
                      }
                    }
                  }
                  JOINT LeftInHandIndex
                  {
                    OFFSET 3.22368 0.508421 1.97842
                    CHANNELS 3 Zrotation Xrotation Yrotation
                    JOINT LeftHandIndex1
                    {
                      OFFSET 5.21684 -0.091368 0.999158
                      CHANNELS 3 Zrotation Xrotation Yrotation
                      JOINT LeftHandIndex2
                      {
                        OFFSET 3.61937 0 0
                        CHANNELS 3 Zrotation Xrotation Yrotation
                        JOINT LeftHandIndex3
                        {
                          OFFSET 2.0521 0 0
                          CHANNELS 3 Zrotation Xrotation Yrotation
                          End Site
                          {
                            OFFSET 1.805 0 0
                          }
                        }
                      }
                    }
                  }
                  JOINT LeftInHandMiddle
                  {
                    OFFSET 3.38211 0.517263 0.756737
                    CHANNELS 3 Zrotation Xrotation Yrotation
                    JOINT LeftHandMiddle1
                    {
                      OFFSET 5.17411 -0.084 0.313895
                      CHANNELS 3 Zrotation Xrotation Yrotation
                      JOINT LeftHandMiddle2
                      {
                        OFFSET 3.94947 0 0
                        CHANNELS 3 Zrotation Xrotation Yrotation
                        JOINT LeftHandMiddle3
                        {
                          OFFSET 2.47579 0 0
                          CHANNELS 3 Zrotation Xrotation Yrotation
                          End Site
                          {
                            OFFSET 1.975 0 0
                          }
                        }
                      }
                    }
                  }
                  JOINT LeftInHandRing
                  {
                    OFFSET 3.36516 0.537895 -0.128947
                    CHANNELS 3 Zrotation Xrotation Yrotation
                    JOINT LeftHandRing1
                    {
                      OFFSET 4.63474 -0.022105 -0.478947
                      CHANNELS 3 Zrotation Xrotation Yrotation
                      JOINT LeftHandRing2
                      {
                        OFFSET 3.44238 0 0
                        CHANNELS 3 Zrotation Xrotation Yrotation
                        JOINT LeftHandRing3
                        {
                          OFFSET 2.3881 0 0
                          CHANNELS 3 Zrotation Xrotation Yrotation
                          End Site
                          {
                            OFFSET 1.857 0 0
                          }
                        }
                      }
                    }
                  }
                  JOINT LeftInHandPinky
                  {
                    OFFSET 3.16105 0.469368 -1.20179
                    CHANNELS 3 Zrotation Xrotation Yrotation
                    JOINT LeftHandPinky1
                    {
                      OFFSET 4.14105 -0.022105 -1.09053
                      CHANNELS 3 Zrotation Xrotation Yrotation
                      JOINT LeftHandPinky2
                      {
                        OFFSET 2.75653 0 0
                        CHANNELS 3 Zrotation Xrotation Yrotation
                        JOINT LeftHandPinky3
                        {
                          OFFSET 1.74189 0 0
                          CHANNELS 3 Zrotation Xrotation Yrotation
                          End Site
                          {
                            OFFSET 1.645 0 0
                          }
                        }
                      }
                    }
                  }
                }
              }
            }
          }
        }
      }
    }
  }
}
MOTION
Frames: 2
Frame Time: 0.00833333
1.106237541656649455e+03 8.759879287451930452e+01 2.090186547140278890e+02 2.583548253868378097e+01 1.131947040528441484e+01 -1.046418353970292117e+02 1.935298229939336778e+01 -5.550825741115897927e+01 1.688666282724653911e+01 -7.283313200334978532e+00 1.920409950332931359e+01 -7.881649749098329494e+00 1.133336891745282671e+01 1.150384014821699274e+01 3.908631594058668668e+01 3.537288619658375666e+01 -3.601275540756951443e+01 1.833386681501164261e+01 -1.500090347200961105e+01 4.153114389238165671e+01 2.461299382063118912e+01 -7.159258941974211865e+00 -2.164188393005981936e+01 -8.884769216382846224e+00 -2.235831090323080694e+00 -4.247046575951578529e-01 -1.579325048501828554e+01 -5.861363965544172938e-01 -2.969458916192533326e-01 -3.948948661199830568e+00 -9.607509849457382956e-01 -5.236029347793931255e-01 -6.367817587802054646e+00 -6.731664981440482753e-01 -2.599315705119482622e-01 2.636548332686956542e+00 -1.171577762145872725e+00 -3.434837203257019134e+00 2.777925652100323362e+01 -1.180068162248047337e+01 3.713313430231177215e+00 3.351903964174833561e+01 8.344502038076829109e+00 2.571962845107666595e+00 -8.961995682612509118e-01 5.013039452647019800e+01 -5.266909938998783502e+01 -1.796610752039840886e+00 4.551438213866312310e+01 4.912478263723292216e-01 1.235355273355237955e+02 7.352618206719039762e+00 -2.003391048287830856e+01 1.391578363145757180e+01 2.818400000000000105e+01 1.072940000000000005e+01 1.915919999999999845e+01 2.681091568884672224e-14 -2.339578753932131095e-15 -1.000000000000000000e+01 -9.858780380490512492e-16 -1.985295234011570110e-15 -1.000000000000000000e+01 -2.671418554377051328e-15 -1.561761618881587979e-15 1.927308388249799716e-15 1.998179999999999978e+01 8.718970000000000331e-01 2.396399999999999864e+00 2.400000000000000000e+01 7.113710806658401014e-15 1.264501416619876643e-14 2.000000000000000000e+01 -1.155319803830309040e-15 8.938143237827646607e-15 -2.671418554377051328e-15 -1.561761618881587979e-15 1.927308388249799716e-15 2.000000000000000000e+01 6.169686219328673222e-15 1.147691678168749193e-14 2.400000000000000000e+01 1.668206305127405393e-15 1.764269745304679201e-15 2.000000000000000000e+01 -2.352489034424041479e-15 3.840142269476426413e-15 -2.671418554377051328e-15 -1.561761618881587979e-15 1.927308388249799716e-15 1.997479999999999833e+01 -1.025649999999999951e+00 -2.819380000000000219e+00 2.400000000000000000e+01 5.180967444152139321e-17 6.531590923799104353e-15 2.000000000000000000e+01 -1.115835101638726020e-14 1.059945233985833584e-14 -2.671418554377051328e-15 -1.561761618881587979e-15 1.927308388249799716e-15 1.978150000000000119e+01 -3.009479999999999933e+00 -8.305149999999999366e+00 2.400000000000000000e+01 4.703075047271014581e-16 5.065543700115668303e-15 2.000000000000000000e+01 -1.078415781343402836e-14 1.122405684014749192e-14 8.243908276092057008e+00 -1.536264892972154783e+01 -5.094506782450277171e+01 -5.927847267712550661e+00 3.062235761970092440e+01 -1.139189590007442945e+02 5.264531679843059919e+01 -7.389994087443366944e+00 -9.228947860295093619e-01 -3.648974421172580662e+01 -1.154753389699235910e+01 -7.052760097606771694e+00 -2.818400000000000105e+01 1.072940000000000005e+01 -1.915919999999999845e+01 2.476129058853630919e-15 2.436871471385988207e-15 1.000000000000000000e+01 3.431796926699082177e-15 -2.807964052241833077e-15 1.000000000000000000e+01 -4.847178444551467388e-15 -2.901375658674740319e-15 -3.164228189915693720e-15 -1.998179999999999978e+01 8.718970000000000331e-01 -2.396399999999999864e+00 -2.400000000000000000e+01 6.615184967306605853e-15 -1.515474362342057183e-15 -2.000000000000000000e+01 -3.030223295640753809e-15 -1.100246204664528749e-14 -4.847178444551467388e-15 -2.901375658674740319e-15 -3.164228189915693720e-15 -2.000000000000000000e+01 -9.917162196258895004e-15 -1.246226471712373053e-15 -2.400000000000000000e+01 -4.135437365046122019e-15 3.505363792019087057e-15 -2.000000000000000000e+01 2.938717120075927744e-15 -1.766128312298618872e-15 -4.847178444551467388e-15 -2.901375658674740319e-15 -3.164228189915693720e-15 -1.997479999999999833e+01 -1.025649999999999951e+00 2.819380000000000219e+00 -2.400000000000000000e+01 4.376384745364967546e-15 4.982652950466720167e-15 -2.000000000000000000e+01 2.261713103124598034e-15 -5.552481087721652610e-16 -4.847178444551467388e-15 -2.901375658674740319e-15 -3.164228189915693720e-15 -1.978150000000000119e+01 -3.009479999999999933e+00 8.305149999999999366e+00 -2.400000000000000000e+01 -2.534383702939460703e-15 1.007224531276762105e-15 -2.000000000000000000e+01 -4.498906860673688144e-15 -8.214295912394913993e-15
1.106197146545935311e+03 8.761607011658541921e+01 2.090338071453593329e+02 2.578919621106563298e+01 1.141625226180997998e+01 -1.043341667596781122e+02 1.921279701233653725e+01 -5.539316951421000113e+01 1.674496654698806708e+01 -7.223219865226583991e+00 1.923775452694630417e+01 -7.956123251477007940e+00 1.136787278134780443e+01 1.138774250964384471e+01 3.892257930176296554e+01 3.526320206173091520e+01 -3.604649308675642772e+01 1.819001446710461778e+01 -1.486143909354526826e+01 4.145244580525971401e+01 2.443757885368709992e+01 -7.169043061868825006e+00 -2.156774749981788730e+01 -8.949208471984183788e+00 -2.193744744365572430e+00 -4.263889261074913506e-01 -1.566196725853973071e+01 -5.751423258313229647e-01 -2.952251577316308273e-01 -3.914906597973649482e+00 -9.426750845286566705e-01 -5.204645444192903536e-01 -6.314086545636948600e+00 -6.673435622452108529e-01 -2.539980429114867544e-01 2.618521233956943028e+00 -1.161865197275455230e+00 -3.404947653683087161e+00 2.755781628163888541e+01 -1.169694062067631712e+01 3.753614728676688994e+00 3.331342386894731789e+01 8.289981206568835859e+00 2.491488094532206432e+00 -8.106381289690143266e-01 5.022042722802289916e+01 -5.229838619588950621e+01 -1.485007454385260051e+00 4.507892084355114548e+01 3.801773442240570233e-01 1.229697599687880967e+02 7.365452617778587729e+00 -2.007993562087866835e+01 1.389543911375649898e+01 2.818400000000000105e+01 1.072940000000000005e+01 1.915919999999999845e+01 2.679312195110015158e-14 -2.367944790361276505e-15 -1.000000000000000000e+01 -9.665847245576714489e-16 -2.004517685657224576e-15 -1.000000000000000000e+01 -2.670973641231934718e-15 -1.571667214932790891e-15 1.931338042566065424e-15 1.998179999999999978e+01 8.718970000000000331e-01 2.396399999999999864e+00 2.400000000000000000e+01 7.128728044795509634e-15 1.269541646455115053e-14 2.000000000000000000e+01 -1.136323350051334415e-15 9.009613385869099363e-15 -2.670973641231934718e-15 -1.571667214932790891e-15 1.931338042566065424e-15 2.000000000000000000e+01 6.136823017876864931e-15 1.151657331250992929e-14 2.400000000000000000e+01 1.712579402146315616e-15 1.785951872901604964e-15 2.000000000000000000e+01 -2.358078369029195967e-15 3.867850462746785908e-15 -2.670973641231934718e-15 -1.571667214932790891e-15 1.931338042566065424e-15 1.997479999999999833e+01 -1.025649999999999951e+00 -2.819380000000000219e+00 2.400000000000000000e+01 7.144936689819509710e-17 6.604385537577982483e-15 2.000000000000000000e+01 -1.115674563871890931e-14 1.065276267339340221e-14 -2.670973641231934718e-15 -1.571667214932790891e-15 1.931338042566065424e-15 1.978150000000000119e+01 -3.009479999999999933e+00 -8.305149999999999366e+00 2.400000000000000000e+01 4.814535747738616925e-16 5.159028545254242772e-15 2.000000000000000000e+01 -1.076527482329590328e-14 1.128520310761738988e-14 8.252930149256219039e+00 -1.531661629456216644e+01 -5.078944400240806800e+01 -6.182316893314974138e+00 3.057043384424700605e+01 -1.136133379738895854e+02 5.199351689789859421e+01 -7.678164429373794064e+00 -1.503335391951097222e+00 -3.650151793395035327e+01 -1.153380874793639776e+01 -7.104993761214918990e+00 -2.818400000000000105e+01 1.072940000000000005e+01 -1.915919999999999845e+01 2.484030459734816293e-15 2.430439927955449751e-15 1.000000000000000000e+01 3.420148405693382764e-15 -2.791033253146855806e-15 1.000000000000000000e+01 -4.865246392126926558e-15 -2.943595684516387180e-15 -3.161076074622747387e-15 -1.998179999999999978e+01 8.718970000000000331e-01 -2.396399999999999864e+00 -2.400000000000000000e+01 6.605225132482016276e-15 -1.567171409633648189e-15 -2.000000000000000000e+01 -3.033659582033204330e-15 -1.105308310905692425e-14 -4.865246392126926558e-15 -2.943595684516387180e-15 -3.161076074622747387e-15 -2.000000000000000000e+01 -9.918028514068219025e-15 -1.235284771107041598e-15 -2.400000000000000000e+01 -4.128548150000528479e-15 3.502797073818345308e-15 -2.000000000000000000e+01 2.970727891359248796e-15 -1.804897773508808943e-15 -4.865246392126926558e-15 -2.943595684516387180e-15 -3.161076074622747387e-15 -1.997479999999999833e+01 -1.025649999999999951e+00 2.819380000000000219e+00 -2.400000000000000000e+01 4.366753135594030047e-15 4.925888305719386288e-15 -2.000000000000000000e+01 2.258289152344061541e-15 -5.827311812915054127e-16 -4.865246392126926558e-15 -2.943595684516387180e-15 -3.161076074622747387e-15 -1.978150000000000119e+01 -3.009479999999999933e+00 8.305149999999999366e+00 -2.400000000000000000e+01 -2.503391577435961012e-15 1.016499410625286611e-15 -2.000000000000000000e+01 -4.505109902447779746e-15 -8.268428664611374360e-15
